<svg id="twitter" xmlns="http://www.w3.org/2000/svg" viewBox="0 0 32 32"><path d="M16,0A16,16,0,1,0,32,16,16,16,0,0,0,16,0Zm.365,13.919h.01a3.331,3.331,0,0,1-.09-.78A3.424,3.424,0,0,1,22.21,10.8a6.835,6.835,0,0,0,1.809-.637c.121-.06.243-.121.362-.188a3.409,3.409,0,0,1-1.1,1.592,3.014,3.014,0,0,1-.4.283l.019,0-.018.013a6.794,6.794,0,0,0,1.607-.393c.117-.041.234-.083.349-.13a6.917,6.917,0,0,1-1.7,1.758c.01.15.01.295.01.445A9.739,9.739,0,0,1,8.15,21.745a7.368,7.368,0,0,0,.82.05,6.833,6.833,0,0,0,3.232-.809c.021-.011.042-.02.062-.031.062-.034.121-.072.181-.107a7.116,7.116,0,0,0,.775-.513h-.012l.012-.009a3.428,3.428,0,0,1-3-1.879,3.527,3.527,0,0,1-.2-.5,3.46,3.46,0,0,0,.639.059,3.393,3.393,0,0,0,.659-.07c.082-.013.164-.023.244-.04l-.019-.006.021,0a3.428,3.428,0,0,1-2.75-3.36v-.04a3.4,3.4,0,0,0,1.2.393c.117.018.234.033.352.041l-.013-.011.019,0A3.4,3.4,0,0,1,9.2,10.566c.038-.072.071-.147.114-.217a9.705,9.705,0,0,0,6.948,3.563c.033,0,.066.009.1.01Z" /></svg>