<svg id="icon-basis" xmlns="http://www.w3.org/2000/svg" viewBox="0 0 30 30"><circle cx="15.7" cy="15.7" r="12" fill="#3fa9f5"/><path d="M20.959,9.158H18.9V8.4a.5.5,0,1,0-1,0v2.864a.5.5,0,0,0,1,0V9.858h2.063a1.109,1.109,0,0,1,1.108,1.108V19.16a1.109,1.109,0,0,1-1.108,1.108H9.272A1.109,1.109,0,0,1,8.164,19.16V10.966A1.109,1.109,0,0,1,9.272,9.858h2.063v1.409a.5.5,0,0,0,1,0V8.4a.5.5,0,1,0-1,0v.755H9.272a1.81,1.81,0,0,0-1.808,1.808V19.16a1.81,1.81,0,0,0,1.808,1.808H20.959a1.81,1.81,0,0,0,1.809-1.808V10.966A1.81,1.81,0,0,0,20.959,9.158Zm-4.109,1.5H13.477v.7H16.85Zm0-1.5H13.477v.7H16.85Zm-5.213,4.3h-1.35v1.35h1.35Zm2.7,0h-1.35v1.35h1.35Zm2.7,0h-1.35v1.35h1.35Zm2.7,0h-1.35v1.35h1.35Zm-8.1,2.025h-1.35v1.35h1.35Zm2.7,0h-1.35v1.35h1.35Zm2.7,0h-1.35v1.35h1.35Zm1.35,1.35h1.35v-1.35h-1.35Zm-8.1,2.025h1.35v-1.35h-1.35Zm4.05-1.35h-1.35v1.35h1.35Zm1.35,1.35h1.35v-1.35h-1.35Zm2.7,0h1.35v-1.35h-1.35Z" fill="#fff"/><path d="M28,15A13,13,0,1,0,15,28,13.015,13.015,0,0,0,28,15ZM15,27A12,12,0,1,1,27,15,12.013,12.013,0,0,1,15,27Z" fill="#1565c0"/></svg>