<svg id="facebook" xmlns="http://www.w3.org/2000/svg" viewBox="0 0 32 32"><path d="M16,0A16,16,0,1,0,32,16,16,16,0,0,0,16,0ZM13.6,25.75V16.865h0v-.01h-2.99V13.39H13.6V10.835a5.337,5.337,0,0,1,.5-2.369c.013-.027.029-.051.043-.078.051-.1.1-.2.162-.288.028-.044.059-.085.088-.128.051-.072.1-.145.154-.213.033-.042.069-.08.1-.12.057-.066.114-.133.176-.2.027-.027.057-.051.085-.078.076-.071.152-.142.233-.206l.03-.022a4.636,4.636,0,0,1,2.888-.888,23.614,23.614,0,0,1,2.675.14v3.1H18.9c-1.44,0-1.72.685-1.72,1.685V13.38h0v.01h3.43l-.445,3.464H17.175v8.9H13.6Z" fill="#374149"/></svg>