<svg id="レイヤー_1" data-name="レイヤー 1" xmlns="http://www.w3.org/2000/svg" viewBox="0 0 32 32"><path d="M4.362,4.509A2.591,2.591,0,0,0,1.774,7.1V12.05H31.22V7.1a2.591,2.591,0,0,0-2.588-2.588H4.362Z" fill="#e37d54"/><path d="M1.774,12.689V28.951a2.591,2.591,0,0,0,2.588,2.588h24.27a2.591,2.591,0,0,0,2.588-2.588V12.689Z" fill="#fef6e5"/><path d="M27.638,4.154A1.952,1.952,0,0,1,29.587,6.1v4.243a.074.074,0,0,1-.071.071H1.49a.074.074,0,0,1-.071-.071V6.1A1.952,1.952,0,0,1,3.368,4.154h24.27m0-.639H3.368A2.591,2.591,0,0,0,.78,6.1v4.243a.713.713,0,0,0,.71.71H29.516a.713.713,0,0,0,.71-.71V6.1a2.591,2.591,0,0,0-2.588-2.588Z"/><path d="M5.151,8.3a1.5,1.5,0,0,1-1.5-1.5V1.963a1.5,1.5,0,1,1,3,0V6.794A1.5,1.5,0,0,1,5.151,8.3Z"/><path d="M4.289,6.793a.863.863,0,1,0,1.725,0V1.963a.863.863,0,1,0-1.725,0Z" fill="#fff"/><path d="M12.052,8.3a1.5,1.5,0,0,1-1.5-1.5V1.963a1.5,1.5,0,1,1,3,0V6.794A1.5,1.5,0,0,1,12.052,8.3Z"/><path d="M11.19,6.793a.863.863,0,1,0,1.725,0V1.963a.863.863,0,1,0-1.725,0Z" fill="#fff"/><path d="M18.954,8.3a1.5,1.5,0,0,1-1.5-1.5V1.963a1.5,1.5,0,1,1,3,0V6.794A1.5,1.5,0,0,1,18.954,8.3Z"/><path d="M18.091,6.793a.863.863,0,1,0,1.725,0V1.963a.863.863,0,1,0-1.725,0Z" fill="#fff"/><path d="M25.855,8.3a1.5,1.5,0,0,1-1.5-1.5V1.963a1.5,1.5,0,1,1,3,0V6.794A1.5,1.5,0,0,1,25.855,8.3Z"/><path d="M24.992,6.793a.863.863,0,1,0,1.725,0V1.963a.863.863,0,1,0-1.725,0Z" fill="#fff"/><path d="M29.516,12.334a.073.073,0,0,1,.071.071V27.957a1.951,1.951,0,0,1-1.949,1.949H3.368a1.951,1.951,0,0,1-1.949-1.949V12.405a.073.073,0,0,1,.071-.071H29.516m0-.639H1.49a.712.712,0,0,0-.71.71V27.957a2.591,2.591,0,0,0,2.588,2.588h24.27a2.591,2.591,0,0,0,2.588-2.588V12.405a.712.712,0,0,0-.71-.71Z"/><path d="M7,21.846,4.81,18.491H6.19L7.6,20.773,9,18.491h1.379L8.208,21.846v2.325H7Z" fill="#d96b52"/><path d="M10.662,18.491h4.019V19.53h-2.81v1.234h2.75V21.8h-2.75v1.319h2.81v1.048H10.662Z" fill="#d96b52"/><path d="M19.248,23.192H16.711l-.358.979H15.024l2.2-5.68h1.515l2.188,5.68h-1.32Zm-2.214-1.048h1.882l-.937-2.606Z" fill="#d96b52"/><path d="M23.551,22.136h-.886v2.035H21.457v-5.68h2.656a1.769,1.769,0,0,1,1.907,1.831,1.63,1.63,0,0,1-1.243,1.686l1.277,2.163H24.667Zm.383-2.606H22.665V21.1h1.269a.786.786,0,1,0,0-1.566Z" fill="#d96b52"/></svg>